<?xml version="1.0" encoding="UTF-8"?>
<svg xmlns="http://www.w3.org/2000/svg" viewBox="0 0 300 300">
  <rect width="300" height="300" fill="#000000"/>
  <g transform="translate(50,93.43) scale(1.3289)">
    <path fill="#FFFFFF" stroke-width="0" d="m150.51,28.69v14c0,10.05.01,20.1-.01,30.16,0,1.44.05,2.92-.22,4.32-.89,4.76-5.4,8.25-10.09,7.94-5.12-.32-9.22-4.44-9.33-9.62-.12-5.55-.03-11.1-.03-16.65,0-4.34-.03-8.68.01-13.02.01-1.72-.49-3.16-1.84-4.25-1.91-1.55-4.31-1.52-6.17.09-.55.47-1.04,1.02-1.55,1.52-12.74,12.74-25.48,25.47-38.21,38.22-1.74,1.75-3.66,3.08-6.15,3.55-5.38,1.02-10.87-3.05-11.35-8.5-.1-1.13-.06-2.25-.06-3.38,0-8.53,0-17.04-.01-25.57,0-.97-.03-1.93-.17-2.89-.29-2.03-1.53-3.3-3.45-3.93-1.78-.59-3.32-.09-4.67,1.13-.47.43-.92.9-1.37,1.36-12.85,12.85-25.71,25.69-38.54,38.56-2.56,2.57-5.54,3.78-9.16,3.15-7.15-1.27-10.48-9.37-6.28-15.31.51-.72,1.13-1.38,1.75-2C25.03,46.14,46.47,24.71,67.93,3.29c4.39-4.38,10.56-4.37,14.54-.05,1.77,1.93,2.58,4.2,2.58,6.82-.01,6.76,0,13.51.01,20.26,0,2.98.01,5.95,0,8.93-.01,1.7.49,3.17,1.84,4.27,1.77,1.47,4.12,1.51,6.01.07.63-.48,1.18-1.09,1.74-1.66,12.85-12.85,25.71-25.69,38.55-38.55,2.48-2.49,5.39-3.76,8.91-3.23,4.85.73,8.32,4.75,8.37,9.72.07,6.27.02,12.55.02,18.81Z"/>
  </g>
</svg>
